<?xml version="1.0" encoding="UTF-8"?>
<svg id="Layer_2" data-name="Layer 2" xmlns="http://www.w3.org/2000/svg" viewBox="0 0 123.52 93.94">
  <defs>
    <style>
      .cls-1 {
        fill: #2d2a26;
      }
    </style>
  </defs>
  <g id="Working_Layer" data-name="Working Layer">
    <g id="Logo_A_Flat" data-name="Logo A Flat">
      <path class="cls-1" d="M6,92.14c7.21-25.87,14.42-51.75,21.64-77.62,1.05-3.77,2.1-7.53,3.15-11.3.6-2.14-1.83-4.01-3.75-2.88C17.39,6.04-3.84,19.83,8.21,32.61c2.9,3.07,6.81,4.94,10.48,6.91,3.3,1.77,7.88,3.78,8.99,7.73,3.5,12.42-16.45,18.53-25.19,17.57-2.85-.31-3.47,4.42-.68,5.01,9.31,1.96,21.15,4.09,30.38,1.02,7.56-2.51,12-11.6,14.35-18.64l-5.01-.68c-.67,5.98-1.34,19.76,7.32,20.32s13.03-12.99,14.84-19.5l-5.01-.68c-.54,6.2-.5,18.92,7.87,19.87s12.29-12.87,13.84-19.03l-5.01-.68c.08,5.59.74,13.03,4.66,17.37s9.26,2.42,13.13-.88c9.81-8.36,16.69-23.75,16.73-36.56.05-15.4-13.25-22.79-27.49-20.56-17.24,2.7-33.72,13.38-48.15,22.58-11.44,7.29-22.61,15.09-33.31,23.44-1.83,1.43-.21,4.33,1.8,4.35,34.58.37,69.16.74,103.74,1.12,4.85.05,9.7.1,14.55.16,3.28.04,3.29-5.06,0-5.1-34.58-.37-69.16-.74-103.74-1.12-4.85-.05-9.7-.1-14.55-.16l1.8,4.35c18.38-14.36,40.48-29.72,62.71-39.47,9.84-4.32,27.72-10.61,35.24,1.09,6.31,9.83-.34,24.9-5.78,33.59-1.99,3.18-6.25,10.28-10.6,10.66-5.15.45-5.6-11.35-5.65-14.86-.04-2.83-4.29-3.52-5.01-.68-.84,3.34-3.73,15.4-8.16,15.36s-3.79-11.89-3.53-14.84-4.26-3.38-5.01-.68c-1.04,3.73-4.33,15.59-9.18,15.72-4.45.12-3.3-12.19-2.96-15.19s-4.15-3.26-5.01-.68c-2.06,6.18-5.97,14.3-12.95,15.59-8.2,1.51-17.42.18-25.51-1.52l-.68,5.01c9.96,1.09,21.98-3.3,27.69-11.83,5.31-7.93,2.51-16.08-5.12-20.84-6.18-3.86-20.21-8.45-13.4-17.9,4.41-6.13,11.53-10.81,17.96-14.6l-3.75-2.88c-7.21,25.87-14.42,51.75-21.64,77.62-1.05,3.77-2.1,7.53-3.15,11.3-.88,3.17,4.04,4.52,4.92,1.36h0Z"/>
    </g>
  </g>
</svg>