<svg width="58" height="57" viewBox="0 0 58 57" fill="none" xmlns="http://www.w3.org/2000/svg">
<path d="M33.1551 14.9067C33.5635 15.4098 33.5638 16.2259 33.1556 16.7295L30.4086 20.1175L33.1556 23.5059C33.5638 24.0094 33.5635 24.8255 33.155 25.3287C32.7465 25.8319 32.0845 25.8316 31.6763 25.328L28.1907 21.0286C27.7826 20.5253 27.7826 19.7097 28.1907 19.2064L31.6763 14.9072C32.0845 14.4037 32.7466 14.4035 33.1551 14.9067Z" fill="white"/>
<path d="M39.4062 14.9067C38.9161 15.4098 38.9158 16.2259 39.4057 16.7295L42.702 20.1175L39.4057 23.5059C38.9158 24.0094 38.9161 24.8255 39.4063 25.3287C39.8965 25.8319 40.6909 25.8316 41.1808 25.328L45.3635 21.0286C45.8532 20.5253 45.8532 19.7097 45.3635 19.2064L41.1808 14.9072C40.6909 14.4037 39.8964 14.4035 39.4062 14.9067Z" fill="white"/>
<path d="M45.7308 33.5467V27.4692C44.9917 28.3528 44.1173 29.1286 43.1375 29.7681V33.5467C43.1375 34.2304 42.557 34.7847 41.8409 34.7847H15.0438C14.3277 34.7847 13.7471 34.2304 13.7471 33.5467V19.3611C13.7471 18.6773 14.3277 18.1231 15.0438 18.1231H24.7902C24.9741 17.2579 25.2611 16.4285 25.6385 15.647H15.0438C12.8954 15.647 11.1539 17.3099 11.1539 19.3611V33.5467C11.1539 35.5978 12.8954 37.2607 15.0438 37.2607H27.1457V39.9945H23.2558C22.5397 39.9945 21.9592 40.5488 21.9592 41.2326C21.9592 41.9163 22.5397 42.4706 23.2558 42.4706H33.6289C34.345 42.4706 34.9255 41.9163 34.9255 41.2326C34.9255 40.5488 34.345 39.9945 33.6289 39.9945H29.739V37.2607H41.8409C43.9892 37.2607 45.7308 35.5978 45.7308 33.5467Z" fill="white"/>
</svg>
