<svg width="28" height="28" viewBox="0 0 28 28" fill="none" xmlns="http://www.w3.org/2000/svg">
<path fill-rule="evenodd" clip-rule="evenodd" d="M25.3823 1.09448C23.923 -0.364826 21.557 -0.364826 20.0977 1.09448L17.1564 4.03574C17.1471 4.04442 17.138 4.05327 17.129 4.06231C17.1201 4.07133 17.1111 4.08046 17.1025 4.08969L3.01301 18.1792C2.57931 18.6128 2.25902 19.1466 2.08044 19.7334L0.054003 26.3916C-0.07994 26.8317 0.0395707 27.3099 0.364854 27.6351C0.690137 27.9604 1.16821 28.08 1.60829 27.946L8.26659 25.9196C8.85338 25.7409 9.38718 25.4207 9.82089 24.9869L26.9056 7.90235C28.3648 6.44305 28.3648 4.07706 26.9056 2.61775L25.3823 1.09448ZM18.0102 6.70501L4.77454 19.9406C4.62999 20.0853 4.52321 20.2631 4.46369 20.4588L3.11725 24.8828L7.54126 23.5362C7.73685 23.4768 7.91478 23.37 8.05936 23.2255L21.295 9.98982L18.0102 6.70501ZM23.0566 8.22828L25.144 6.14082C25.6305 5.65437 25.6305 4.86571 25.144 4.37929L23.6207 2.85601C23.1343 2.36958 22.3456 2.36958 21.8591 2.85601L19.7717 4.94347L23.0566 8.22828Z" fill="white"/>
</svg>
