<svg width="45" height="45" viewBox="0 0 45 45" fill="none" xmlns="http://www.w3.org/2000/svg">
<path d="M5.64558 18.0752C5.4526 18.7954 5.87999 19.5356 6.60016 19.7286C7.32035 19.9215 8.0606 19.4942 8.25358 18.774C9.07395 15.7123 10.8817 13.0069 13.3964 11.0773C15.9111 9.14768 18.9921 8.10179 22.1619 8.10179C25.3316 8.10179 28.4126 9.14768 30.9274 11.0773C33.1198 12.7596 34.7749 15.0317 35.7068 17.6155L32.6916 15.9177C32.0418 15.5518 31.2186 15.782 30.8529 16.4316C30.4869 17.0813 30.7172 17.9045 31.3668 18.2703L36.9121 21.3929C37.224 21.5685 37.593 21.613 37.9379 21.5167C38.2827 21.4202 38.5751 21.1909 38.7508 20.8788L41.8732 15.3329C42.239 14.6832 42.0088 13.86 41.3591 13.4943C40.7093 13.1285 39.8862 13.3586 39.5204 14.0083L38.151 16.4407C37.0287 13.4795 35.1012 10.8767 32.571 8.93523C29.5848 6.64381 25.9259 5.40179 22.1619 5.40179C18.3978 5.40179 14.7389 6.64381 11.7527 8.93523C8.76647 11.2266 6.61978 14.4394 5.64558 18.0752Z" fill="white"/>
<path d="M38.6831 26.9248C38.876 26.2046 38.4487 25.4644 37.7285 25.2715C37.0083 25.0785 36.268 25.5058 36.075 26.226C35.2546 29.2876 33.4469 31.9932 30.9323 33.9228C28.4175 35.8524 25.3364 36.8982 22.1668 36.8982C18.997 36.8982 15.9159 35.8524 13.4012 33.9228C11.2125 32.2432 9.5594 29.9761 8.62668 27.3978L11.6195 29.0831C12.2692 29.4489 13.0924 29.2189 13.4582 28.5692C13.824 27.9194 13.5939 27.0963 12.9443 26.7304L7.39899 23.6079C7.08699 23.4322 6.71798 23.3878 6.37315 23.4841C6.02831 23.5805 5.7359 23.81 5.56023 24.122L2.4379 29.6678C2.07212 30.3176 2.30229 31.1407 2.95198 31.5065C3.60167 31.8722 4.42488 31.6422 4.79066 30.9924L6.17078 28.5412C7.29205 31.5097 9.22224 34.1194 11.7576 36.0648C14.7438 38.3562 18.4026 39.5982 22.1668 39.5982C25.9308 39.5982 29.5896 38.3562 32.5758 36.0648C35.5622 33.7734 37.7089 30.5606 38.6831 26.9248Z" fill="white"/>
</svg>
