<svg xmlns="http://www.w3.org/2000/svg" viewBox="0 0 123.52 93.94">
  <path fill="#fff" d="M121.06,57.74l-18.94-.2c4.8-7.9,7.77-17.39,7.8-25.78.05-15.4-13.25-22.79-27.49-20.56-17.24,2.7-33.72,13.38-48.15,22.58-2.47,1.57-4.92,3.18-7.36,4.8-.59-.46-1.2-.91-1.86-1.33-.94-.58-2.05-1.19-3.25-1.82,1.94-6.97,3.89-13.94,5.83-20.92,1.05-3.77,2.1-7.53,3.15-11.3.6-2.14-1.83-4.01-3.75-2.88C17.39,6.04-3.84,19.83,8.21,32.61c2.14,2.28,4.85,3.89,7.59,5.37-.96,3.43-1.91,6.86-2.87,10.3-4.04,2.92-8.04,5.88-11.96,8.94-1.83,1.43-.21,4.33,1.8,4.35,2.14.02,4.29.05,6.43.07-.28.99-.55,1.98-.83,2.97-2.21.32-4.25.39-5.9.21-2.85-.31-3.47,4.42-.68,5.01,1.55.33,3.18.66,4.85.97-.81,2.9-1.62,5.8-2.42,8.7-1.05,3.77-2.1,7.53-3.15,11.3-.88,3.17,4.04,4.52,4.92,1.36,1.91-6.84,3.81-13.67,5.72-20.51,6.97.99,14.3,1.26,20.47-.79,3.91-1.3,6.97-4.36,9.36-7.98.73,4.63,2.69,8.68,7.31,8.98,4.65.3,8.06-3.45,10.5-8.01,1.01,3.95,3.11,7.23,7.21,7.7,4.75.54,8.04-3.58,10.29-8.38.7,2.28,1.71,4.39,3.21,6.05,3.97,4.4,9.26,2.42,13.13-.88,1.94-1.65,3.76-3.59,5.44-5.72,2.63.03,5.26.06,7.89.08,4.85.05,9.7.1,14.55.16,3.28.04,3.29-5.06,0-5.1ZM67.28,21.35c9.84-4.32,27.72-10.61,35.24,1.09,6.31,9.83-.34,24.9-5.78,33.59-.26.42-.57.91-.9,1.44-5-.05-10-.11-15-.16-.26-2.24-.33-4.32-.34-5.48-.04-2.83-4.29-3.52-5.01-.68-.3,1.21-.88,3.57-1.7,6.08-3.4-.04-6.79-.07-10.19-.11-.04-2.32.11-4.43.2-5.46.25-2.92-4.26-3.38-5.01-.68-.36,1.31-1.01,3.62-1.89,6.07-3.54-.04-7.08-.08-10.63-.11.05-2.31.26-4.4.37-5.42.33-2.99-4.15-3.26-5.01-.68-.64,1.91-1.45,4-2.48,6.02-2.73-.03-5.45-.06-8.18-.09,2.91-5.23,2.38-10.46-.64-14.68,11.84-7.91,24.38-15.23,36.96-20.75ZM17.32,56.63l-1.42-.02c.51-1.83,1.02-3.67,1.53-5.5,2.92-2.13,5.9-4.25,8.94-6.34.58.73,1.04,1.55,1.3,2.47,1.05,3.74-.02,6.9-2.27,9.47-2.69-.03-5.39-.06-8.08-.09ZM11.65,19.35c3.17-4.41,7.75-8.06,12.46-11.18-2.3,8.25-4.6,16.51-6.9,24.76-5.43-3.19-10.06-7.32-5.56-13.58ZM20.41,40.43c.68.36,1.38.74,2.06,1.15-.98.67-1.97,1.34-2.95,2.02.29-1.06.59-2.11.88-3.17ZM10.13,56.55c.21-.16.42-.32.63-.48-.04.16-.09.32-.13.48-.16,0-.33,0-.49,0ZM14.49,61.7l3.76.04c-1.36.62-2.79,1.16-4.22,1.6.15-.55.31-1.1.46-1.64ZM28.67,66.43c-3.07.57-6.28.73-9.52.63,2.91-1.33,5.59-3.09,7.83-5.23,2.96.03,5.91.06,8.87.1-1.92,2.26-4.28,3.97-7.18,4.51ZM49.6,66.7c-1.84.05-2.72-2.01-3.1-4.66l8.16.09c-1.4,2.56-3.11,4.52-5.06,4.58ZM67.32,66.5c-1.78-.02-2.74-1.87-3.24-4.28,2.56.03,5.11.05,7.67.08-1.23,2.41-2.71,4.21-4.43,4.19ZM86.15,66.69c-2.12.18-3.45-1.72-4.27-4.27,3.45.04,6.9.07,10.35.11-1.83,2.16-3.94,3.97-6.07,4.16Z"/>
</svg>
